<mxfile host="app.diagrams.net" modified="2023-10-30T10:19:26.944Z" agent="Mozilla/5.0 (Windows NT 10.0; Win64; x64) AppleWebKit/537.36 (KHTML, like Gecko) Chrome/118.0.0.0 Safari/537.36" etag="7uQKMGEdRV66j62GXI6s" version="22.0.8" type="device">
  <diagram id="R2lEEEUBdFMjLlhIrx00" name="Page-1">
    <mxGraphModel dx="1984" dy="1700" grid="1" gridSize="10" guides="1" tooltips="1" connect="1" arrows="1" fold="1" page="1" pageScale="1" pageWidth="850" pageHeight="1100" math="0" shadow="0" extFonts="Permanent Marker^https://fonts.googleapis.com/css?family=Permanent+Marker">
      <root>
        <mxCell id="0" />
        <mxCell id="1" parent="0" />
        <mxCell id="PLf5JzaUQ55UlpKYsyIt-2" value="partido" style="whiteSpace=wrap;html=1;align=center;fillColor=#dae8fc;strokeColor=#6c8ebf;" vertex="1" parent="1">
          <mxGeometry x="30" y="470" width="100" height="40" as="geometry" />
        </mxCell>
        <mxCell id="PLf5JzaUQ55UlpKYsyIt-3" value="presidente" style="whiteSpace=wrap;html=1;align=center;fillColor=#fff2cc;strokeColor=#d6b656;" vertex="1" parent="1">
          <mxGeometry x="550" y="-220" width="100" height="40" as="geometry" />
        </mxCell>
        <mxCell id="PLf5JzaUQ55UlpKYsyIt-4" value="equipo" style="whiteSpace=wrap;html=1;align=center;fillColor=#e1d5e7;strokeColor=#9673a6;" vertex="1" parent="1">
          <mxGeometry x="550" y="160" width="100" height="40" as="geometry" />
        </mxCell>
        <mxCell id="PLf5JzaUQ55UlpKYsyIt-5" value="jugador" style="whiteSpace=wrap;html=1;align=center;fillColor=#f8cecc;strokeColor=#b85450;" vertex="1" parent="1">
          <mxGeometry x="30" y="160" width="100" height="40" as="geometry" />
        </mxCell>
        <mxCell id="PLf5JzaUQ55UlpKYsyIt-6" value="nombre" style="ellipse;whiteSpace=wrap;html=1;align=center;fillColor=#f8cecc;strokeColor=#b85450;" vertex="1" parent="1">
          <mxGeometry x="-140" y="90" width="100" height="40" as="geometry" />
        </mxCell>
        <mxCell id="PLf5JzaUQ55UlpKYsyIt-8" value="posicion" style="ellipse;whiteSpace=wrap;html=1;align=center;fillColor=#f8cecc;strokeColor=#b85450;" vertex="1" parent="1">
          <mxGeometry x="-130" y="200" width="100" height="40" as="geometry" />
        </mxCell>
        <mxCell id="PLf5JzaUQ55UlpKYsyIt-9" value="fecha_nacimiento" style="ellipse;whiteSpace=wrap;html=1;align=center;fillColor=#f8cecc;strokeColor=#b85450;" vertex="1" parent="1">
          <mxGeometry x="-140" y="150" width="100" height="40" as="geometry" />
        </mxCell>
        <mxCell id="PLf5JzaUQ55UlpKYsyIt-10" value="cod_jugador" style="ellipse;whiteSpace=wrap;html=1;align=center;fontStyle=4;fillColor=#f8cecc;strokeColor=#b85450;" vertex="1" parent="1">
          <mxGeometry x="-140" y="40" width="100" height="40" as="geometry" />
        </mxCell>
        <mxCell id="PLf5JzaUQ55UlpKYsyIt-13" value="" style="endArrow=none;html=1;rounded=0;exitX=1;exitY=0.5;exitDx=0;exitDy=0;entryX=0;entryY=0;entryDx=0;entryDy=0;fillColor=#f8cecc;strokeColor=#b85450;" edge="1" parent="1" source="PLf5JzaUQ55UlpKYsyIt-10" target="PLf5JzaUQ55UlpKYsyIt-5">
          <mxGeometry relative="1" as="geometry">
            <mxPoint x="320" y="310" as="sourcePoint" />
            <mxPoint x="480" y="310" as="targetPoint" />
          </mxGeometry>
        </mxCell>
        <mxCell id="PLf5JzaUQ55UlpKYsyIt-14" value="" style="endArrow=none;html=1;rounded=0;exitX=1;exitY=0.5;exitDx=0;exitDy=0;entryX=0;entryY=0.5;entryDx=0;entryDy=0;fillColor=#f8cecc;strokeColor=#b85450;" edge="1" parent="1" source="PLf5JzaUQ55UlpKYsyIt-6" target="PLf5JzaUQ55UlpKYsyIt-5">
          <mxGeometry relative="1" as="geometry">
            <mxPoint x="50" y="110" as="sourcePoint" />
            <mxPoint x="90" y="170" as="targetPoint" />
          </mxGeometry>
        </mxCell>
        <mxCell id="PLf5JzaUQ55UlpKYsyIt-15" value="" style="endArrow=none;html=1;rounded=0;exitX=1;exitY=0.5;exitDx=0;exitDy=0;entryX=0;entryY=0.5;entryDx=0;entryDy=0;fillColor=#f8cecc;strokeColor=#b85450;" edge="1" parent="1" source="PLf5JzaUQ55UlpKYsyIt-9" target="PLf5JzaUQ55UlpKYsyIt-5">
          <mxGeometry relative="1" as="geometry">
            <mxPoint x="320" y="310" as="sourcePoint" />
            <mxPoint x="480" y="310" as="targetPoint" />
          </mxGeometry>
        </mxCell>
        <mxCell id="PLf5JzaUQ55UlpKYsyIt-16" value="" style="endArrow=none;html=1;rounded=0;exitX=1;exitY=0.5;exitDx=0;exitDy=0;entryX=0;entryY=1;entryDx=0;entryDy=0;fillColor=#f8cecc;strokeColor=#b85450;" edge="1" parent="1" source="PLf5JzaUQ55UlpKYsyIt-8" target="PLf5JzaUQ55UlpKYsyIt-5">
          <mxGeometry relative="1" as="geometry">
            <mxPoint x="-30" y="180" as="sourcePoint" />
            <mxPoint x="40" y="190" as="targetPoint" />
          </mxGeometry>
        </mxCell>
        <mxCell id="PLf5JzaUQ55UlpKYsyIt-17" value="estadio" style="ellipse;whiteSpace=wrap;html=1;align=center;fillColor=#e1d5e7;strokeColor=#9673a6;" vertex="1" parent="1">
          <mxGeometry x="750" y="110" width="100" height="40" as="geometry" />
        </mxCell>
        <mxCell id="PLf5JzaUQ55UlpKYsyIt-18" value="ciudad" style="ellipse;whiteSpace=wrap;html=1;align=center;fillColor=#e1d5e7;strokeColor=#9673a6;" vertex="1" parent="1">
          <mxGeometry x="700" y="260" width="100" height="40" as="geometry" />
        </mxCell>
        <mxCell id="PLf5JzaUQ55UlpKYsyIt-19" value="anyo_fundacion" style="ellipse;whiteSpace=wrap;html=1;align=center;fillColor=#e1d5e7;strokeColor=#9673a6;" vertex="1" parent="1">
          <mxGeometry x="750" y="210" width="100" height="40" as="geometry" />
        </mxCell>
        <mxCell id="PLf5JzaUQ55UlpKYsyIt-20" value="aforo" style="ellipse;whiteSpace=wrap;html=1;align=center;fillColor=#e1d5e7;strokeColor=#9673a6;" vertex="1" parent="1">
          <mxGeometry x="760" y="160" width="100" height="40" as="geometry" />
        </mxCell>
        <mxCell id="PLf5JzaUQ55UlpKYsyIt-21" value="nombre_equipo" style="ellipse;whiteSpace=wrap;html=1;align=center;fillColor=#e1d5e7;strokeColor=#9673a6;" vertex="1" parent="1">
          <mxGeometry x="730" y="50" width="100" height="40" as="geometry" />
        </mxCell>
        <mxCell id="PLf5JzaUQ55UlpKYsyIt-22" value="cod_equipo" style="ellipse;whiteSpace=wrap;html=1;align=center;fontStyle=4;fillColor=#e1d5e7;strokeColor=#9673a6;" vertex="1" parent="1">
          <mxGeometry x="700" y="-20" width="100" height="40" as="geometry" />
        </mxCell>
        <mxCell id="PLf5JzaUQ55UlpKYsyIt-24" value="" style="endArrow=none;html=1;rounded=0;exitX=0;exitY=1;exitDx=0;exitDy=0;entryX=1;entryY=0;entryDx=0;entryDy=0;fillColor=#e1d5e7;strokeColor=#9673a6;" edge="1" parent="1" source="PLf5JzaUQ55UlpKYsyIt-22" target="PLf5JzaUQ55UlpKYsyIt-4">
          <mxGeometry relative="1" as="geometry">
            <mxPoint x="410" y="300" as="sourcePoint" />
            <mxPoint x="570" y="300" as="targetPoint" />
          </mxGeometry>
        </mxCell>
        <mxCell id="PLf5JzaUQ55UlpKYsyIt-25" value="" style="endArrow=none;html=1;rounded=0;exitX=0;exitY=0.5;exitDx=0;exitDy=0;entryX=1;entryY=0;entryDx=0;entryDy=0;fillColor=#e1d5e7;strokeColor=#9673a6;" edge="1" parent="1" source="PLf5JzaUQ55UlpKYsyIt-21" target="PLf5JzaUQ55UlpKYsyIt-4">
          <mxGeometry relative="1" as="geometry">
            <mxPoint x="620" y="100" as="sourcePoint" />
            <mxPoint x="610" y="170" as="targetPoint" />
          </mxGeometry>
        </mxCell>
        <mxCell id="PLf5JzaUQ55UlpKYsyIt-26" value="" style="endArrow=none;html=1;rounded=0;exitX=0;exitY=0.5;exitDx=0;exitDy=0;entryX=1;entryY=0.5;entryDx=0;entryDy=0;fillColor=#e1d5e7;strokeColor=#9673a6;" edge="1" parent="1" source="PLf5JzaUQ55UlpKYsyIt-17" target="PLf5JzaUQ55UlpKYsyIt-4">
          <mxGeometry relative="1" as="geometry">
            <mxPoint x="700" y="100" as="sourcePoint" />
            <mxPoint x="660" y="170" as="targetPoint" />
          </mxGeometry>
        </mxCell>
        <mxCell id="PLf5JzaUQ55UlpKYsyIt-27" value="" style="endArrow=none;html=1;rounded=0;exitX=0;exitY=0.5;exitDx=0;exitDy=0;entryX=1;entryY=0.5;entryDx=0;entryDy=0;fillColor=#e1d5e7;strokeColor=#9673a6;" edge="1" parent="1" source="PLf5JzaUQ55UlpKYsyIt-20" target="PLf5JzaUQ55UlpKYsyIt-4">
          <mxGeometry relative="1" as="geometry">
            <mxPoint x="710" y="150" as="sourcePoint" />
            <mxPoint x="660" y="170" as="targetPoint" />
          </mxGeometry>
        </mxCell>
        <mxCell id="PLf5JzaUQ55UlpKYsyIt-28" value="" style="endArrow=none;html=1;rounded=0;exitX=0;exitY=0.5;exitDx=0;exitDy=0;entryX=1;entryY=1;entryDx=0;entryDy=0;fillColor=#e1d5e7;strokeColor=#9673a6;" edge="1" parent="1" source="PLf5JzaUQ55UlpKYsyIt-19" target="PLf5JzaUQ55UlpKYsyIt-4">
          <mxGeometry relative="1" as="geometry">
            <mxPoint x="710" y="210" as="sourcePoint" />
            <mxPoint x="660" y="190" as="targetPoint" />
          </mxGeometry>
        </mxCell>
        <mxCell id="PLf5JzaUQ55UlpKYsyIt-29" value="" style="endArrow=none;html=1;rounded=0;exitX=0.5;exitY=0;exitDx=0;exitDy=0;entryX=0.75;entryY=1;entryDx=0;entryDy=0;fillColor=#e1d5e7;strokeColor=#9673a6;" edge="1" parent="1" source="PLf5JzaUQ55UlpKYsyIt-18" target="PLf5JzaUQ55UlpKYsyIt-4">
          <mxGeometry relative="1" as="geometry">
            <mxPoint x="710" y="260" as="sourcePoint" />
            <mxPoint x="660" y="210" as="targetPoint" />
          </mxGeometry>
        </mxCell>
        <mxCell id="PLf5JzaUQ55UlpKYsyIt-30" value="fecha_partido" style="ellipse;whiteSpace=wrap;html=1;align=center;fillColor=#dae8fc;strokeColor=#6c8ebf;" vertex="1" parent="1">
          <mxGeometry x="190" y="590" width="100" height="40" as="geometry" />
        </mxCell>
        <mxCell id="PLf5JzaUQ55UlpKYsyIt-31" value="gol_visitante" style="ellipse;whiteSpace=wrap;html=1;align=center;fillColor=#dae8fc;strokeColor=#6c8ebf;" vertex="1" parent="1">
          <mxGeometry x="-40" y="590" width="100" height="40" as="geometry" />
        </mxCell>
        <mxCell id="PLf5JzaUQ55UlpKYsyIt-32" value="gol_local" style="ellipse;whiteSpace=wrap;html=1;align=center;fillColor=#dae8fc;strokeColor=#6c8ebf;" vertex="1" parent="1">
          <mxGeometry x="70" y="590" width="100" height="40" as="geometry" />
        </mxCell>
        <mxCell id="PLf5JzaUQ55UlpKYsyIt-33" value="cod_partido" style="ellipse;whiteSpace=wrap;html=1;align=center;fontStyle=4;fillColor=#dae8fc;strokeColor=#6c8ebf;" vertex="1" parent="1">
          <mxGeometry x="-150" y="580" width="100" height="40" as="geometry" />
        </mxCell>
        <mxCell id="PLf5JzaUQ55UlpKYsyIt-34" value="" style="endArrow=none;html=1;rounded=0;entryX=0.5;entryY=0;entryDx=0;entryDy=0;exitX=0;exitY=1;exitDx=0;exitDy=0;fillColor=#dae8fc;strokeColor=#6c8ebf;" edge="1" parent="1" source="PLf5JzaUQ55UlpKYsyIt-2" target="PLf5JzaUQ55UlpKYsyIt-33">
          <mxGeometry relative="1" as="geometry">
            <mxPoint x="60" y="450" as="sourcePoint" />
            <mxPoint x="220" y="450" as="targetPoint" />
          </mxGeometry>
        </mxCell>
        <mxCell id="PLf5JzaUQ55UlpKYsyIt-35" value="" style="endArrow=none;html=1;rounded=0;entryX=0.5;entryY=0;entryDx=0;entryDy=0;exitX=0.5;exitY=1;exitDx=0;exitDy=0;fillColor=#dae8fc;strokeColor=#6c8ebf;" edge="1" parent="1" source="PLf5JzaUQ55UlpKYsyIt-2" target="PLf5JzaUQ55UlpKYsyIt-32">
          <mxGeometry relative="1" as="geometry">
            <mxPoint x="150" y="480" as="sourcePoint" />
            <mxPoint x="280" y="420" as="targetPoint" />
          </mxGeometry>
        </mxCell>
        <mxCell id="PLf5JzaUQ55UlpKYsyIt-36" value="" style="endArrow=none;html=1;rounded=0;entryX=0.5;entryY=0;entryDx=0;entryDy=0;exitX=0.5;exitY=1;exitDx=0;exitDy=0;fillColor=#dae8fc;strokeColor=#6c8ebf;" edge="1" parent="1" source="PLf5JzaUQ55UlpKYsyIt-2" target="PLf5JzaUQ55UlpKYsyIt-31">
          <mxGeometry relative="1" as="geometry">
            <mxPoint x="150" y="500" as="sourcePoint" />
            <mxPoint x="280" y="480" as="targetPoint" />
          </mxGeometry>
        </mxCell>
        <mxCell id="PLf5JzaUQ55UlpKYsyIt-37" value="" style="endArrow=none;html=1;rounded=0;entryX=0.5;entryY=0;entryDx=0;entryDy=0;exitX=1;exitY=1;exitDx=0;exitDy=0;fillColor=#dae8fc;strokeColor=#6c8ebf;" edge="1" parent="1" source="PLf5JzaUQ55UlpKYsyIt-2" target="PLf5JzaUQ55UlpKYsyIt-30">
          <mxGeometry relative="1" as="geometry">
            <mxPoint x="150" y="500" as="sourcePoint" />
            <mxPoint x="270" y="540" as="targetPoint" />
          </mxGeometry>
        </mxCell>
        <mxCell id="PLf5JzaUQ55UlpKYsyIt-38" value="minuto" style="ellipse;whiteSpace=wrap;html=1;align=center;fillColor=#d5e8d4;strokeColor=#82b366;" vertex="1" parent="1">
          <mxGeometry x="430" y="280" width="100" height="40" as="geometry" />
        </mxCell>
        <mxCell id="PLf5JzaUQ55UlpKYsyIt-39" value="id_gol" style="ellipse;whiteSpace=wrap;html=1;align=center;fontStyle=4;fillColor=#d5e8d4;strokeColor=#82b366;" vertex="1" parent="1">
          <mxGeometry x="440" y="330" width="100" height="40" as="geometry" />
        </mxCell>
        <mxCell id="PLf5JzaUQ55UlpKYsyIt-40" value="" style="endArrow=none;html=1;rounded=0;entryX=1;entryY=0.5;entryDx=0;entryDy=0;fillColor=#d5e8d4;strokeColor=#82b366;exitX=0.02;exitY=0.675;exitDx=0;exitDy=0;exitPerimeter=0;" edge="1" parent="1" source="PLf5JzaUQ55UlpKYsyIt-38" target="PLf5JzaUQ55UlpKYsyIt-63">
          <mxGeometry relative="1" as="geometry">
            <mxPoint x="440" y="300" as="sourcePoint" />
            <mxPoint x="295" y="380" as="targetPoint" />
          </mxGeometry>
        </mxCell>
        <mxCell id="PLf5JzaUQ55UlpKYsyIt-41" value="" style="endArrow=none;html=1;rounded=0;entryX=1;entryY=0.5;entryDx=0;entryDy=0;exitX=0;exitY=0.5;exitDx=0;exitDy=0;fillColor=#d5e8d4;strokeColor=#82b366;" edge="1" parent="1" source="PLf5JzaUQ55UlpKYsyIt-39" target="PLf5JzaUQ55UlpKYsyIt-63">
          <mxGeometry relative="1" as="geometry">
            <mxPoint x="235" y="440" as="sourcePoint" />
            <mxPoint x="295" y="380" as="targetPoint" />
          </mxGeometry>
        </mxCell>
        <mxCell id="PLf5JzaUQ55UlpKYsyIt-42" value="fecha_nacimiento" style="ellipse;whiteSpace=wrap;html=1;align=center;fillColor=#fff2cc;strokeColor=#d6b656;" vertex="1" parent="1">
          <mxGeometry x="360" y="-190" width="100" height="40" as="geometry" />
        </mxCell>
        <mxCell id="PLf5JzaUQ55UlpKYsyIt-43" value="anyo_nombramiento" style="ellipse;whiteSpace=wrap;html=1;align=center;fillColor=#fff2cc;strokeColor=#d6b656;" vertex="1" parent="1">
          <mxGeometry x="350" y="-120" width="120" height="40" as="geometry" />
        </mxCell>
        <mxCell id="PLf5JzaUQ55UlpKYsyIt-44" value="nombre_completo" style="ellipse;whiteSpace=wrap;html=1;align=center;fillColor=#fff2cc;strokeColor=#d6b656;" vertex="1" parent="1">
          <mxGeometry x="370" y="-260" width="100" height="40" as="geometry" />
        </mxCell>
        <mxCell id="PLf5JzaUQ55UlpKYsyIt-45" value="DNI" style="ellipse;whiteSpace=wrap;html=1;align=center;fontStyle=4;fillColor=#fff2cc;strokeColor=#d6b656;" vertex="1" parent="1">
          <mxGeometry x="380" y="-310" width="100" height="40" as="geometry" />
        </mxCell>
        <mxCell id="PLf5JzaUQ55UlpKYsyIt-46" value="nombre" style="ellipse;whiteSpace=wrap;html=1;align=center;fillColor=#fff2cc;strokeColor=#d6b656;" vertex="1" parent="1">
          <mxGeometry x="200" y="-310" width="100" height="40" as="geometry" />
        </mxCell>
        <mxCell id="PLf5JzaUQ55UlpKYsyIt-47" value="ap1" style="ellipse;whiteSpace=wrap;html=1;align=center;fillColor=#fff2cc;strokeColor=#d6b656;" vertex="1" parent="1">
          <mxGeometry x="200" y="-260" width="100" height="40" as="geometry" />
        </mxCell>
        <mxCell id="PLf5JzaUQ55UlpKYsyIt-48" value="ap2" style="ellipse;whiteSpace=wrap;html=1;align=center;dashed=1;fillColor=#fff2cc;strokeColor=#d6b656;" vertex="1" parent="1">
          <mxGeometry x="200" y="-210" width="100" height="40" as="geometry" />
        </mxCell>
        <mxCell id="PLf5JzaUQ55UlpKYsyIt-50" value="" style="endArrow=none;html=1;rounded=0;exitX=1;exitY=0.5;exitDx=0;exitDy=0;entryX=0;entryY=0;entryDx=0;entryDy=0;fillColor=#fff2cc;strokeColor=#d6b656;" edge="1" parent="1" source="PLf5JzaUQ55UlpKYsyIt-45" target="PLf5JzaUQ55UlpKYsyIt-3">
          <mxGeometry relative="1" as="geometry">
            <mxPoint x="660" y="-240" as="sourcePoint" />
            <mxPoint x="820" y="-240" as="targetPoint" />
          </mxGeometry>
        </mxCell>
        <mxCell id="PLf5JzaUQ55UlpKYsyIt-51" value="" style="endArrow=none;html=1;rounded=0;exitX=1;exitY=0.5;exitDx=0;exitDy=0;entryX=0;entryY=0.5;entryDx=0;entryDy=0;fillColor=#fff2cc;strokeColor=#d6b656;" edge="1" parent="1" source="PLf5JzaUQ55UlpKYsyIt-44" target="PLf5JzaUQ55UlpKYsyIt-3">
          <mxGeometry relative="1" as="geometry">
            <mxPoint x="490" y="-280" as="sourcePoint" />
            <mxPoint x="550" y="-210" as="targetPoint" />
          </mxGeometry>
        </mxCell>
        <mxCell id="PLf5JzaUQ55UlpKYsyIt-52" value="" style="endArrow=none;html=1;rounded=0;exitX=1;exitY=0.5;exitDx=0;exitDy=0;entryX=0;entryY=0.5;entryDx=0;entryDy=0;fillColor=#fff2cc;strokeColor=#d6b656;" edge="1" parent="1" source="PLf5JzaUQ55UlpKYsyIt-42" target="PLf5JzaUQ55UlpKYsyIt-3">
          <mxGeometry relative="1" as="geometry">
            <mxPoint x="480" y="-230" as="sourcePoint" />
            <mxPoint x="550" y="-190" as="targetPoint" />
          </mxGeometry>
        </mxCell>
        <mxCell id="PLf5JzaUQ55UlpKYsyIt-53" value="" style="endArrow=none;html=1;rounded=0;exitX=1;exitY=0.5;exitDx=0;exitDy=0;entryX=0;entryY=1;entryDx=0;entryDy=0;fillColor=#fff2cc;strokeColor=#d6b656;" edge="1" parent="1" source="PLf5JzaUQ55UlpKYsyIt-43" target="PLf5JzaUQ55UlpKYsyIt-3">
          <mxGeometry relative="1" as="geometry">
            <mxPoint x="470" y="-160" as="sourcePoint" />
            <mxPoint x="550" y="-190" as="targetPoint" />
          </mxGeometry>
        </mxCell>
        <mxCell id="PLf5JzaUQ55UlpKYsyIt-54" value="" style="endArrow=none;html=1;rounded=0;exitX=0;exitY=0.5;exitDx=0;exitDy=0;entryX=1;entryY=0.5;entryDx=0;entryDy=0;fillColor=#fff2cc;strokeColor=#d6b656;" edge="1" parent="1" source="PLf5JzaUQ55UlpKYsyIt-44" target="PLf5JzaUQ55UlpKYsyIt-46">
          <mxGeometry relative="1" as="geometry">
            <mxPoint x="480" y="-90" as="sourcePoint" />
            <mxPoint x="550" y="-170" as="targetPoint" />
          </mxGeometry>
        </mxCell>
        <mxCell id="PLf5JzaUQ55UlpKYsyIt-55" value="" style="endArrow=none;html=1;rounded=0;exitX=0;exitY=0.5;exitDx=0;exitDy=0;entryX=1;entryY=0.5;entryDx=0;entryDy=0;fillColor=#fff2cc;strokeColor=#d6b656;" edge="1" parent="1" source="PLf5JzaUQ55UlpKYsyIt-44" target="PLf5JzaUQ55UlpKYsyIt-47">
          <mxGeometry relative="1" as="geometry">
            <mxPoint x="380" y="-230" as="sourcePoint" />
            <mxPoint x="310" y="-280" as="targetPoint" />
          </mxGeometry>
        </mxCell>
        <mxCell id="PLf5JzaUQ55UlpKYsyIt-56" value="" style="endArrow=none;html=1;rounded=0;exitX=0;exitY=0.5;exitDx=0;exitDy=0;entryX=1;entryY=0.5;entryDx=0;entryDy=0;fillColor=#fff2cc;strokeColor=#d6b656;" edge="1" parent="1" source="PLf5JzaUQ55UlpKYsyIt-44" target="PLf5JzaUQ55UlpKYsyIt-48">
          <mxGeometry relative="1" as="geometry">
            <mxPoint x="380" y="-230" as="sourcePoint" />
            <mxPoint x="310" y="-230" as="targetPoint" />
          </mxGeometry>
        </mxCell>
        <mxCell id="PLf5JzaUQ55UlpKYsyIt-57" value="pertenece" style="shape=rhombus;perimeter=rhombusPerimeter;whiteSpace=wrap;html=1;align=center;" vertex="1" parent="1">
          <mxGeometry x="270" y="150" width="120" height="60" as="geometry" />
        </mxCell>
        <mxCell id="PLf5JzaUQ55UlpKYsyIt-58" value="" style="endArrow=none;html=1;rounded=0;exitX=1;exitY=0.5;exitDx=0;exitDy=0;entryX=0;entryY=0.5;entryDx=0;entryDy=0;" edge="1" parent="1" source="PLf5JzaUQ55UlpKYsyIt-5" target="PLf5JzaUQ55UlpKYsyIt-57">
          <mxGeometry relative="1" as="geometry">
            <mxPoint x="90" y="310" as="sourcePoint" />
            <mxPoint x="250" y="310" as="targetPoint" />
          </mxGeometry>
        </mxCell>
        <mxCell id="PLf5JzaUQ55UlpKYsyIt-59" value="" style="endArrow=none;html=1;rounded=0;exitX=0;exitY=0.5;exitDx=0;exitDy=0;entryX=1;entryY=0.5;entryDx=0;entryDy=0;" edge="1" parent="1" source="PLf5JzaUQ55UlpKYsyIt-4" target="PLf5JzaUQ55UlpKYsyIt-57">
          <mxGeometry relative="1" as="geometry">
            <mxPoint x="140" y="190" as="sourcePoint" />
            <mxPoint x="280" y="190" as="targetPoint" />
          </mxGeometry>
        </mxCell>
        <mxCell id="PLf5JzaUQ55UlpKYsyIt-60" value="(1,1)" style="text;strokeColor=none;fillColor=none;spacingLeft=4;spacingRight=4;overflow=hidden;rotatable=0;points=[[0,0.5],[1,0.5]];portConstraint=eastwest;fontSize=12;whiteSpace=wrap;html=1;" vertex="1" parent="1">
          <mxGeometry x="490" y="150" width="40" height="30" as="geometry" />
        </mxCell>
        <mxCell id="PLf5JzaUQ55UlpKYsyIt-61" value="(1,N)" style="text;strokeColor=none;fillColor=none;spacingLeft=4;spacingRight=4;overflow=hidden;rotatable=0;points=[[0,0.5],[1,0.5]];portConstraint=eastwest;fontSize=12;whiteSpace=wrap;html=1;" vertex="1" parent="1">
          <mxGeometry x="150" y="150" width="40" height="30" as="geometry" />
        </mxCell>
        <mxCell id="PLf5JzaUQ55UlpKYsyIt-62" value="Equipo-Jugador: un equipo minimo tiene que tener un jugador o muchos&lt;br&gt;&lt;br&gt;Jugador-equipo: Un jugador como minimo tiene que pertenecer a un equipo porque si no no lo almacenariamos en la base de datos y como maximo solo puede pertenecer a un equipo&lt;br&gt;&lt;br&gt;Equipo -Presidente: Un equipo tiene un presidente como minimo y este no puede ser presidente de mas equipos&lt;br&gt;&lt;br&gt;Presidente - Equipo: Un presidente tien como minimo a un equipo porque si no o seria presidente y como maximo puede tener a un equipo&lt;br&gt;&lt;br&gt;TRECIARIA:&lt;br&gt;&lt;br&gt;JUGADOR: Un jugador puede no marcar ningun gol en un partido o puede marcar varios goles en un partido&lt;br&gt;&lt;br&gt;PARTIDO: En un partido se puede no haver marcado ningun gol o se pueden haver marcado muchos goles&lt;br&gt;&lt;br&gt;GOL: Un gol tiene que ser marcado por un jugador en un partido especifico" style="text;strokeColor=none;fillColor=none;spacingLeft=4;spacingRight=4;overflow=hidden;rotatable=0;points=[[0,0.5],[1,0.5]];portConstraint=eastwest;fontSize=12;whiteSpace=wrap;html=1;" vertex="1" parent="1">
          <mxGeometry x="-285" y="-350" width="370" height="370" as="geometry" />
        </mxCell>
        <mxCell id="PLf5JzaUQ55UlpKYsyIt-63" value="gol" style="shape=ext;margin=3;double=1;whiteSpace=wrap;html=1;align=center;fillColor=#d5e8d4;strokeColor=#82b366;" vertex="1" parent="1">
          <mxGeometry x="245" y="320" width="100" height="40" as="geometry" />
        </mxCell>
        <mxCell id="PLf5JzaUQ55UlpKYsyIt-70" value="marca" style="shape=rhombus;perimeter=rhombusPerimeter;whiteSpace=wrap;html=1;align=center;" vertex="1" parent="1">
          <mxGeometry x="20" y="310" width="120" height="60" as="geometry" />
        </mxCell>
        <mxCell id="PLf5JzaUQ55UlpKYsyIt-71" value="" style="endArrow=none;html=1;rounded=0;exitX=0.5;exitY=1;exitDx=0;exitDy=0;entryX=0.5;entryY=0;entryDx=0;entryDy=0;" edge="1" parent="1" source="PLf5JzaUQ55UlpKYsyIt-5" target="PLf5JzaUQ55UlpKYsyIt-70">
          <mxGeometry relative="1" as="geometry">
            <mxPoint x="240" y="310" as="sourcePoint" />
            <mxPoint x="400" y="310" as="targetPoint" />
          </mxGeometry>
        </mxCell>
        <mxCell id="PLf5JzaUQ55UlpKYsyIt-72" value="" style="endArrow=none;html=1;rounded=0;entryX=0.5;entryY=1;entryDx=0;entryDy=0;exitX=0.5;exitY=0;exitDx=0;exitDy=0;" edge="1" parent="1" source="PLf5JzaUQ55UlpKYsyIt-2" target="PLf5JzaUQ55UlpKYsyIt-70">
          <mxGeometry relative="1" as="geometry">
            <mxPoint x="80" y="400" as="sourcePoint" />
            <mxPoint x="60" y="330" as="targetPoint" />
          </mxGeometry>
        </mxCell>
        <mxCell id="PLf5JzaUQ55UlpKYsyIt-75" value="(0,N)" style="text;strokeColor=none;fillColor=none;spacingLeft=4;spacingRight=4;overflow=hidden;rotatable=0;points=[[0,0.5],[1,0.5]];portConstraint=eastwest;fontSize=12;whiteSpace=wrap;html=1;" vertex="1" parent="1">
          <mxGeometry x="80" y="205" width="40" height="30" as="geometry" />
        </mxCell>
        <mxCell id="PLf5JzaUQ55UlpKYsyIt-77" value="tiene" style="shape=rhombus;perimeter=rhombusPerimeter;whiteSpace=wrap;html=1;align=center;" vertex="1" parent="1">
          <mxGeometry x="540" y="-30" width="120" height="60" as="geometry" />
        </mxCell>
        <mxCell id="PLf5JzaUQ55UlpKYsyIt-79" value="" style="endArrow=none;html=1;rounded=0;entryX=0.5;entryY=0;entryDx=0;entryDy=0;exitX=0.5;exitY=1;exitDx=0;exitDy=0;" edge="1" parent="1" source="PLf5JzaUQ55UlpKYsyIt-77" target="PLf5JzaUQ55UlpKYsyIt-4">
          <mxGeometry relative="1" as="geometry">
            <mxPoint x="370" y="40" as="sourcePoint" />
            <mxPoint x="530" y="40" as="targetPoint" />
          </mxGeometry>
        </mxCell>
        <mxCell id="PLf5JzaUQ55UlpKYsyIt-80" value="" style="endArrow=none;html=1;rounded=0;entryX=0.5;entryY=1;entryDx=0;entryDy=0;exitX=0.5;exitY=0;exitDx=0;exitDy=0;" edge="1" parent="1" source="PLf5JzaUQ55UlpKYsyIt-77" target="PLf5JzaUQ55UlpKYsyIt-3">
          <mxGeometry relative="1" as="geometry">
            <mxPoint x="610" y="40" as="sourcePoint" />
            <mxPoint x="610" y="170" as="targetPoint" />
          </mxGeometry>
        </mxCell>
        <mxCell id="PLf5JzaUQ55UlpKYsyIt-81" value="(1,1)" style="text;strokeColor=none;fillColor=none;spacingLeft=4;spacingRight=4;overflow=hidden;rotatable=0;points=[[0,0.5],[1,0.5]];portConstraint=eastwest;fontSize=12;whiteSpace=wrap;html=1;" vertex="1" parent="1">
          <mxGeometry x="610" y="-180" width="40" height="30" as="geometry" />
        </mxCell>
        <mxCell id="PLf5JzaUQ55UlpKYsyIt-82" value="(1,1)" style="text;strokeColor=none;fillColor=none;spacingLeft=4;spacingRight=4;overflow=hidden;rotatable=0;points=[[0,0.5],[1,0.5]];portConstraint=eastwest;fontSize=12;whiteSpace=wrap;html=1;" vertex="1" parent="1">
          <mxGeometry x="600" y="130" width="40" height="30" as="geometry" />
        </mxCell>
        <mxCell id="PLf5JzaUQ55UlpKYsyIt-83" value="" style="endArrow=none;html=1;rounded=0;exitX=1;exitY=0.5;exitDx=0;exitDy=0;entryX=0;entryY=0.5;entryDx=0;entryDy=0;" edge="1" parent="1" source="PLf5JzaUQ55UlpKYsyIt-70" target="PLf5JzaUQ55UlpKYsyIt-63">
          <mxGeometry relative="1" as="geometry">
            <mxPoint x="50" y="440" as="sourcePoint" />
            <mxPoint x="210" y="440" as="targetPoint" />
          </mxGeometry>
        </mxCell>
        <mxCell id="PLf5JzaUQ55UlpKYsyIt-84" value="(0,N)" style="text;strokeColor=none;fillColor=none;spacingLeft=4;spacingRight=4;overflow=hidden;rotatable=0;points=[[0,0.5],[1,0.5]];portConstraint=eastwest;fontSize=12;whiteSpace=wrap;html=1;" vertex="1" parent="1">
          <mxGeometry x="80" y="440" width="40" height="30" as="geometry" />
        </mxCell>
        <mxCell id="PLf5JzaUQ55UlpKYsyIt-85" value="(1,1)" style="text;strokeColor=none;fillColor=none;spacingLeft=4;spacingRight=4;overflow=hidden;rotatable=0;points=[[0,0.5],[1,0.5]];portConstraint=eastwest;fontSize=12;whiteSpace=wrap;html=1;" vertex="1" parent="1">
          <mxGeometry x="200" y="310" width="40" height="30" as="geometry" />
        </mxCell>
        <mxCell id="PLf5JzaUQ55UlpKYsyIt-86" value="&lt;font style=&quot;font-size: 24px;&quot;&gt;&lt;b&gt;RUBÉN VALERO POLICARPO&lt;/b&gt;&lt;/font&gt;" style="text;strokeColor=none;fillColor=none;spacingLeft=4;spacingRight=4;overflow=hidden;rotatable=0;points=[[0,0.5],[1,0.5]];portConstraint=eastwest;fontSize=12;whiteSpace=wrap;html=1;" vertex="1" parent="1">
          <mxGeometry x="-285" y="-420" width="350" height="40" as="geometry" />
        </mxCell>
      </root>
    </mxGraphModel>
  </diagram>
</mxfile>
